<svg width="240" height="56" viewBox="0 0 240 56" fill="none" xmlns="http://www.w3.org/2000/svg">
<path fill-rule="evenodd" clip-rule="evenodd" d="M27.2972 0C12.1552 0 0 12.3859 0 27.5143C0 42.6428 12.1552 55.0287 27.2972 55.0287C34.7888 55.0287 41.5661 51.98 46.4811 47.0921L58.3487 36.4052L70.2199 47.0962C75.1323 51.9875 81.9166 55.0342 89.4 55.0342C104.542 55.0342 116.697 42.6484 116.697 27.5199C116.697 12.3914 104.542 0.00557598 89.4 0.00557598C81.9132 0.00557598 75.1337 3.04533 70.2145 7.94361L54.114 22.4424C53.9906 22.5456 53.8702 22.6539 53.7531 22.7674L37.5096 37.395C37.4167 37.4787 37.3261 37.565 37.2381 37.6539C34.671 40.2443 31.1663 41.8204 27.2972 41.8204C19.5846 41.8204 13.211 35.4819 13.211 27.5143C13.211 19.5468 19.5846 13.2082 27.2972 13.2082C31.1626 13.2082 34.6704 14.7855 37.2292 17.3713C39.7949 19.9642 43.9772 19.9866 46.5706 17.4214C49.164 14.8562 49.1864 10.6747 46.6207 8.0819C41.6973 3.10656 34.8537 0 27.2972 0ZM79.1933 37.4007L68.2185 27.5171L79.1876 17.6393C79.2818 17.5545 79.3735 17.467 79.4626 17.3769C82.0252 14.7872 85.5269 13.2138 89.4 13.2138C97.1127 13.2138 103.486 19.5523 103.486 27.5199C103.486 35.4875 97.1127 41.826 89.4 41.826C85.5347 41.826 82.0269 40.2487 79.4681 37.6629C79.379 37.5729 79.2874 37.4854 79.1933 37.4007ZM136.514 27.5171C136.514 19.6145 142.921 13.2082 150.826 13.2082C158.73 13.2082 165.138 19.6145 165.138 27.5171V28.0675H136.514V27.5171ZM165.138 48.4301V41.2757H136.514V48.4301C136.514 52.0775 133.556 55.0342 129.908 55.0342C126.26 55.0342 123.303 52.0775 123.303 48.4301V27.5171C123.303 12.3198 135.625 0 150.826 0C166.026 0 178.349 12.3198 178.349 27.5171V48.4301C178.349 52.0775 175.391 55.0342 171.743 55.0342C168.095 55.0342 165.138 52.0775 165.138 48.4301ZM196.23 1.9343C193.651 -0.644766 189.468 -0.644766 186.889 1.9343C184.309 4.51336 184.309 8.69485 186.889 11.2739L203.135 27.5171L186.889 43.7603C184.309 46.3394 184.309 50.5209 186.889 53.0999C189.468 55.679 193.651 55.679 196.23 53.0999L212.477 36.8567L228.724 53.0999C231.303 55.679 235.486 55.679 238.065 53.0999C240.645 50.5209 240.645 46.3394 238.065 43.7603L221.819 27.5171L238.065 11.2739C240.645 8.69485 240.645 4.51336 238.065 1.9343C235.486 -0.644766 231.303 -0.644766 228.724 1.9343L212.477 18.1775L196.23 1.9343Z" fill="#06f"/>
</svg>
